<mxfile host="app.diagrams.net" modified="2023-08-15T06:14:24.568Z" agent="Mozilla/5.0 (Macintosh; Intel Mac OS X 10_15_7) AppleWebKit/605.1.15 (KHTML, like Gecko) Version/16.6 Safari/605.1.15" version="21.6.8" etag="N3wlW2sJo9bMIeqetcDp" type="github">
  <diagram name="第 1 页" id="LGUB9jtDMRtoubPHhZuj">
    <mxGraphModel>
      <root>
        <mxCell id="0" />
        <mxCell id="1" parent="0" />
      </root>
    </mxGraphModel>
  </diagram>
</mxfile>
